<?xml version="1.0" encoding="utf-8"?>
<!-- Generator: Adobe Illustrator 16.0.0, SVG Export Plug-In . SVG Version: 6.00 Build 0)  -->
<!DOCTYPE svg PUBLIC "-//W3C//DTD SVG 1.1//EN" "http://www.w3.org/Graphics/SVG/1.1/DTD/svg11.dtd">
<svg version="1.1" id="Layer_1" xmlns="http://www.w3.org/2000/svg" xmlns:xlink="http://www.w3.org/1999/xlink" x="0px" y="0px"
	 width="125px" height="126px" viewBox="0 0 125 126" enable-background="new 0 0 125 126" xml:space="preserve">
<g>
	<path fill-rule="evenodd" clip-rule="evenodd" fill="#0B7B3E" d="M23.684,39.888c0-21.324,17.324-38.589,38.647-38.589
		c21.325,0,38.589,17.266,38.589,38.589c0,21.326-17.264,38.647-38.589,38.647C41.008,78.535,23.684,61.213,23.684,39.888
		L23.684,39.888z M23.684,39.888"/>
	<path fill-rule="evenodd" clip-rule="evenodd" fill="#FECD67" d="M27.961,22.232l59.238-11.273l-4.062,61.483
		c-6.001,3.855-13.143,6.094-20.806,6.094c-21.323,0-38.647-17.322-38.647-38.647C23.684,33.523,25.23,27.522,27.961,22.232
		L27.961,22.232z M27.961,22.232"/>
	<path fill-rule="evenodd" clip-rule="evenodd" fill="#2469B3" d="M23.898,43.963c4.333-6.81,11.933-11.336,20.597-11.336
		c13.492,0,24.468,10.979,24.468,24.471c0,8.977-4.857,16.81-12.084,21.053C39.457,75.682,25.75,61.574,23.898,43.963L23.898,43.963
		z M23.898,43.963"/>
	<path fill-rule="evenodd" clip-rule="evenodd" fill="#FECD67" d="M77.139,83.51h36.358l-25.438,29.498l-5.604-8.23l13.262-15.264
		H77.139V83.51z M77.139,83.51"/>
	<path fill-rule="evenodd" clip-rule="evenodd" fill="#FDFDFE" d="M45.866,83.51v4.63H23.97v7.72h17.266v4.629H23.97v12.52H11.106
		V83.51H45.866z M45.866,83.51"/>
	<path fill-rule="evenodd" clip-rule="evenodd" fill="#FDFDFE" d="M67.648,101.576l-6.747-10.52l-6.46,10.52H67.648z M36.89,113.008
		L56.558,83.51H67.99l20.068,29.498H74.967l-4.461-6.975h-18.75l-4.288,6.975H36.89z M36.89,113.008"/>
	<path fill-rule="evenodd" clip-rule="evenodd" fill="#FFFFFF" d="M4.339,118.481H2.005v1.606h2.249v0.949H2.005v3.186H1v-6.691
		h3.339V118.481z M9.43,122.6H6.569l-0.746,1.623H4.739l3.307-7.112l3.195,7.112h-1.105L9.43,122.6z M9.022,121.65l-0.992-2.275
		l-1.039,2.275H9.022z M17.014,117.893v1.195c-0.583-0.487-1.188-0.729-1.808-0.729c-0.687,0-1.268,0.241-1.74,0.74
		c-0.474,0.487-0.708,1.09-0.708,1.801c0,0.699,0.234,1.293,0.708,1.773c0.475,0.482,1.055,0.724,1.745,0.724
		c0.353,0,0.655-0.058,0.904-0.175c0.138-0.056,0.278-0.133,0.429-0.23c0.146-0.096,0.308-0.215,0.469-0.354v1.215
		c-0.575,0.329-1.182,0.488-1.816,0.488c-0.96,0-1.774-0.332-2.451-0.997c-0.673-0.677-1.01-1.487-1.01-2.437
		c0-0.852,0.284-1.61,0.846-2.278c0.692-0.817,1.588-1.226,2.689-1.226C15.877,117.404,16.458,117.568,17.014,117.893
		L17.014,117.893z M19.295,117.531v4.029c0,0.578,0.092,0.996,0.284,1.264c0.278,0.383,0.673,0.573,1.18,0.573
		c0.515,0,0.91-0.19,1.188-0.573c0.188-0.256,0.281-0.678,0.281-1.264v-4.029h1.01v4.311c0,0.702-0.22,1.285-0.66,1.736
		c-0.493,0.512-1.1,0.764-1.819,0.764c-0.719,0-1.32-0.252-1.814-0.764c-0.439-0.451-0.658-1.034-0.658-1.736v-4.311H19.295z
		 M25.848,117.531v5.742h1.967v0.949H24.84v-6.691H25.848z M28.77,124.223v-6.691h1.4c0.676,0,1.207,0.066,1.594,0.202
		c0.422,0.128,0.799,0.351,1.141,0.665c0.692,0.624,1.037,1.453,1.037,2.48c0,1.028-0.358,1.855-1.077,2.495
		c-0.363,0.315-0.743,0.538-1.135,0.66c-0.375,0.124-0.896,0.188-1.575,0.188H28.77z M29.777,123.273h0.457
		c0.451,0,0.83-0.051,1.129-0.144c0.297-0.101,0.573-0.26,0.811-0.478c0.5-0.459,0.746-1.047,0.746-1.773
		c0-0.732-0.244-1.329-0.734-1.785c-0.44-0.408-1.092-0.612-1.952-0.612h-0.457V123.273z M39.136,122.6h-2.862l-0.745,1.623h-1.087
		l3.31-7.112l3.192,7.112h-1.103L39.136,122.6z M38.728,121.65l-0.995-2.275l-1.037,2.275H38.728z M41.78,124.223v-6.691h1.4
		c0.673,0,1.207,0.066,1.594,0.202c0.422,0.128,0.798,0.351,1.141,0.665c0.689,0.624,1.037,1.453,1.037,2.48
		c0,1.028-0.361,1.855-1.077,2.495c-0.366,0.315-0.743,0.538-1.138,0.66c-0.372,0.124-0.894,0.188-1.572,0.188H41.78z
		 M42.785,123.273h0.458c0.451,0,0.828-0.051,1.13-0.144c0.297-0.101,0.573-0.26,0.811-0.478c0.499-0.459,0.746-1.047,0.746-1.773
		c0-0.732-0.244-1.329-0.734-1.785c-0.44-0.408-1.092-0.612-1.952-0.612h-0.458V123.273z M51.91,118.481h-2.684v1.606h2.604v0.949
		h-2.604v2.236h2.684v0.949h-3.691v-6.691h3.691V118.481z M58.926,118.479h-3.299v-0.943h4.985l-4.225,6.918l-0.798-0.512
		L58.926,118.479z M64.18,124.223v-6.688h1.399c0.675,0,1.207,0.066,1.595,0.198c0.421,0.128,0.797,0.351,1.14,0.665
		c0.692,0.627,1.036,1.453,1.036,2.48c0,1.028-0.357,1.855-1.076,2.495c-0.363,0.315-0.742,0.538-1.138,0.66
		c-0.371,0.124-0.894,0.188-1.572,0.188H64.18z M65.188,123.273h0.455c0.451,0,0.828-0.049,1.13-0.144
		c0.298-0.101,0.573-0.26,0.812-0.478c0.499-0.459,0.745-1.047,0.745-1.773c0-0.732-0.243-1.326-0.734-1.785
		c-0.44-0.408-1.093-0.612-1.952-0.612h-0.455V123.273z M74.309,118.481h-2.683v1.606h2.604v0.949h-2.604v2.236h2.683v0.949h-3.691
		v-6.688h3.691V118.481z M82.148,118.531l-0.818,0.482c-0.152-0.265-0.301-0.438-0.439-0.52c-0.146-0.092-0.331-0.135-0.557-0.135
		c-0.281,0-0.515,0.08-0.697,0.233c-0.186,0.161-0.278,0.354-0.278,0.591c0,0.329,0.244,0.589,0.727,0.791l0.671,0.273
		c0.541,0.217,0.939,0.482,1.188,0.803c0.252,0.315,0.377,0.7,0.377,1.162c0,0.617-0.204,1.121-0.613,1.527
		c-0.416,0.402-0.925,0.602-1.537,0.602c-0.581,0-1.061-0.167-1.438-0.515c-0.373-0.342-0.607-0.825-0.703-1.45l1.026-0.226
		c0.045,0.396,0.127,0.665,0.243,0.817c0.211,0.285,0.51,0.429,0.91,0.429c0.316,0,0.576-0.103,0.78-0.315
		c0.209-0.209,0.315-0.48,0.315-0.803c0-0.128-0.019-0.247-0.054-0.355c-0.039-0.106-0.092-0.207-0.172-0.297
		c-0.077-0.094-0.175-0.178-0.294-0.258c-0.125-0.08-0.266-0.154-0.436-0.226l-0.646-0.271c-0.912-0.387-1.371-0.955-1.371-1.699
		c0-0.502,0.191-0.924,0.578-1.26c0.382-0.342,0.859-0.51,1.432-0.51C81.113,117.404,81.719,117.781,82.148,118.531L82.148,118.531z
		 M87.231,118.481h-2.684v1.606h2.604v0.949h-2.604v2.236h2.684v0.949h-3.692v-6.688h3.692V118.481z M90.397,118.481v5.741h-1.013
		v-5.741h-1.538v-0.946h4.081v0.946H90.397z M96.518,118.481h-2.684v1.606h2.604v0.949h-2.604v2.236h2.684v0.949h-3.691v-6.688
		h3.691V118.481z M97.605,124.223l1.404-7.191l2.3,5.199l2.376-5.199l1.265,7.191h-1.034l-0.646-4.036l-1.979,4.341l-1.925-4.346
		l-0.72,4.041H97.605z M106.364,124.223v-6.688h1.002c0.448,0,0.809,0.033,1.071,0.105c0.268,0.066,0.496,0.186,0.682,0.35
		c0.186,0.168,0.337,0.383,0.442,0.635c0.116,0.257,0.17,0.52,0.17,0.779c0,0.48-0.183,0.889-0.552,1.217
		c0.355,0.122,0.639,0.337,0.844,0.639c0.209,0.301,0.311,0.65,0.311,1.045c0,0.525-0.18,0.969-0.555,1.326
		c-0.22,0.223-0.47,0.379-0.748,0.467c-0.302,0.085-0.684,0.125-1.14,0.125H106.364z M107.371,120.406h0.316
		c0.376,0,0.652-0.082,0.83-0.252c0.172-0.164,0.26-0.408,0.26-0.731c0-0.315-0.094-0.555-0.271-0.719
		c-0.178-0.159-0.438-0.244-0.78-0.244h-0.355V120.406z M107.371,123.273h0.627c0.456,0,0.789-0.09,1.002-0.268
		c0.225-0.194,0.342-0.438,0.342-0.735c0-0.294-0.111-0.532-0.328-0.727c-0.21-0.196-0.586-0.294-1.133-0.294h-0.51V123.273z
		 M113.869,121.369l2.073,2.854h-1.233l-1.912-2.736h-0.182v2.736h-1.009v-6.688h1.18c0.884,0,1.522,0.166,1.918,0.495
		c0.435,0.372,0.647,0.859,0.647,1.47c0,0.469-0.134,0.877-0.404,1.219C114.672,121.059,114.316,121.276,113.869,121.369
		L113.869,121.369z M112.615,120.607h0.32c0.957,0,1.437-0.368,1.437-1.1c0-0.685-0.466-1.026-1.397-1.026h-0.359V120.607z
		 M116.61,120.847c0-0.941,0.348-1.747,1.04-2.427c0.687-0.674,1.512-1.01,2.474-1.01c0.952,0,1.774,0.34,2.452,1.018
		c0.683,0.685,1.029,1.504,1.029,2.459c0,0.963-0.347,1.779-1.034,2.447c-0.687,0.671-1.519,1.008-2.495,1.008
		c-0.867,0-1.641-0.297-2.33-0.896C116.992,122.785,116.61,121.92,116.61,120.847L116.61,120.847z M117.631,120.859
		c0,0.74,0.25,1.35,0.746,1.825c0.492,0.478,1.062,0.713,1.713,0.713c0.7,0,1.289-0.241,1.774-0.729
		c0.481-0.487,0.721-1.084,0.721-1.789c0-0.717-0.239-1.311-0.714-1.793c-0.475-0.488-1.061-0.727-1.756-0.727
		c-0.696,0-1.288,0.238-1.766,0.727C117.87,119.566,117.631,120.154,117.631,120.859L117.631,120.859z M117.631,120.859"/>
</g>
</svg>
